<svg xmlns="http://www.w3.org/2000/svg">
  <defs>
    <symbol id="logo" viewBox="0 0 36 36"><rect x="2.5" y="5" width="31" height="26" rx="8" fill="none" stroke="currentColor" stroke-width="2.3"/><path d="M3.5 12.5h25a5 5 0 0 1 0 10h-4" fill="none" stroke="currentColor" stroke-linecap="round" stroke-linejoin="round" stroke-width="2.3"/><circle cx="25" cy="17.5" r="1.6" fill="currentColor"/></symbol>
    <symbol id="eye" viewBox="0 0 24 24"><path d="M2.5 12s3.5-6 9.5-6 9.5 6 9.5 6-3.5 6-9.5 6-9.5-6-9.5-6Z"/><circle cx="12" cy="12" r="2.6"/></symbol>
    <symbol id="user" viewBox="0 0 24 24"><circle cx="12" cy="8" r="4"/><path d="M4.5 21a7.5 7.5 0 0 1 15 0"/></symbol>
    <symbol id="logout" viewBox="0 0 24 24"><path d="M10 17l5-5-5-5M15 12H3M21 4v16a1 1 0 0 1-1 1h-7"/></symbol>
    <symbol id="arrow-right" viewBox="0 0 24 24"><path d="M5 12h14M13 6l6 6-6 6"/></symbol>
    <symbol id="arrow-left" viewBox="0 0 24 24"><path d="M19 12H5m6 6-6-6 6-6"/></symbol>
    <symbol id="arrow-down" viewBox="0 0 24 24"><path d="M12 4v16m-6-6 6 6 6-6"/></symbol>
    <symbol id="arrow-up" viewBox="0 0 24 24"><path d="M12 20V4m-6 6 6-6 6 6"/></symbol>
    <symbol id="send" viewBox="0 0 24 24"><path d="m4 20 16-16M7 4h13v13"/></symbol>
    <symbol id="credit-card" viewBox="0 0 24 24"><rect x="3" y="5" width="18" height="14" rx="2.5"/><path d="M3 10h18M7 15h3"/></symbol>
    <symbol id="layout" viewBox="0 0 24 24"><rect x="3" y="3" width="7" height="7" rx="1.4"/><rect x="14" y="3" width="7" height="7" rx="1.4"/><rect x="3" y="14" width="7" height="7" rx="1.4"/><rect x="14" y="14" width="7" height="7" rx="1.4"/></symbol>
    <symbol id="clock" viewBox="0 0 24 24"><circle cx="12" cy="12" r="8.5"/><path d="M12 7v5l3.5 2"/></symbol>
    <symbol id="plus" viewBox="0 0 24 24"><path d="M12 5v14M5 12h14"/></symbol>
    <symbol id="alert" viewBox="0 0 24 24"><path d="M12 4 21 20H3L12 4Z"/><path d="M12 9v4m0 3h.01"/></symbol>
    <symbol id="x" viewBox="0 0 24 24"><path d="m6 6 12 12M18 6 6 18"/></symbol>
    <symbol id="users" viewBox="0 0 24 24"><circle cx="9" cy="8" r="3"/><path d="M3 20a6 6 0 0 1 12 0M16 5.5a3 3 0 0 1 0 5.8M18 20a5 5 0 0 0-2.4-4.3"/></symbol>
    <symbol id="edit" viewBox="0 0 24 24"><path d="m4 20 4.2-1 10-10a2.1 2.1 0 0 0-3-3l-10 10L4 20Z"/><path d="m13.5 7.5 3 3"/></symbol>
    <symbol id="search" viewBox="0 0 24 24"><circle cx="10.8" cy="10.8" r="6.3"/><path d="m16 16 4 4"/></symbol>
    <symbol id="trash" viewBox="0 0 24 24"><path d="M4 7h16M9 7V4h6v3m-9 0 1 13h10l1-13M10 11v5m4-5v5"/></symbol>
    <symbol id="activity" viewBox="0 0 24 24"><path d="M3 12h4l2.2-5 4.1 10 2.1-5H21"/></symbol>
    <symbol id="check" viewBox="0 0 24 24"><path d="m5 12 4.2 4.2L19 6.5"/></symbol>
    <symbol id="mail" viewBox="0 0 24 24"><rect x="3" y="5" width="18" height="14" rx="2"/><path d="m4 7 8 6 8-6"/></symbol>
  </defs>
</svg>
